<svg width="2500" height="535" viewBox="0 0 2500 535" fill="none" xmlns="http://www.w3.org/2000/svg">
<g clip-path="url(#clip0_1324_2447)">
<path d="M381.491 135.027L379.243 207.308L190.725 412.227C269.472 412.227 319.405 411.457 348.199 409.858C339.854 448.747 333.068 480.54 326.231 528.204C288.362 525.005 229.324 524.206 170.256 524.206C104.412 524.206 46.8627 524.995 0.677734 528.204L2.2169 455.103L190.725 251.004C108.199 251.004 77.9059 251.784 43.8543 252.583C51.4002 216.043 56.7074 175.555 62.0045 135.027C121.812 137.406 145.279 138.185 223.267 138.185C295.198 138.195 336.056 137.406 381.491 135.027ZM595.765 113.558C473.082 113.558 379.243 223.169 379.243 354.268C379.243 452.745 436.012 528.204 546.542 528.204C669.955 528.204 763.075 418.573 763.075 286.705C763.085 189.058 707.794 113.558 595.765 113.558ZM558.655 422.851C531.39 422.851 515.509 398.194 515.509 349.75C515.509 277.47 545.033 219.501 581.393 219.501C607.869 219.501 623.77 243.348 623.77 292.561C623.76 364.043 595.016 422.851 558.655 422.851ZM2329.8 108.121C2205.54 108.121 2110.44 219.181 2110.44 351.929C2110.44 451.745 2167.96 528.204 2279.94 528.204C2404.96 528.204 2499.31 417.134 2499.31 283.556C2499.32 184.59 2443.35 108.121 2329.8 108.121ZM2289.87 422.431C2262.59 422.431 2246.72 397.774 2246.72 349.331C2246.72 277.05 2276.25 219.091 2312.6 219.091C2339.07 219.091 2355 242.918 2355 292.142C2354.98 363.653 2326.21 422.431 2289.87 422.431ZM1399.77 256.551C1409.62 189.058 1404.33 127.881 1329.39 127.881C1274.87 127.881 1215.82 173.956 1174.18 251.004C1183.28 187.438 1177.96 127.881 1103.77 127.881C1047.75 127.881 987.183 176.324 945.526 256.551C956.13 204.129 953.871 144.542 950.833 131.839C907.686 138.995 869.847 142.953 816.835 144.542C818.355 181.092 816.076 228.716 809.26 274.031L791.849 393.157C785.033 440.041 777.457 494.052 769.881 528.214H910.705C911.474 507.535 916.781 474.983 920.559 446.388L932.673 364.592C942.507 311.341 984.894 248.625 1017.45 248.625C1036.38 248.625 1035.64 266.885 1030.33 301.037L1016.7 393.147C1009.86 440.031 1002.31 494.042 994.729 528.204H1137.06C1137.83 507.525 1142.37 474.973 1146.15 446.378L1158.25 364.582C1168.1 311.331 1210.52 248.615 1243.05 248.615C1262 248.615 1261.25 266.066 1258.2 289.913L1224.19 528.194H1354.09L1399.77 256.551ZM2079.91 403.501L2064.77 497.24C2041.29 509.944 1997.38 528.224 1946.65 528.224C1860.34 528.224 1842.95 482.149 1856.55 384.452L1878.52 227.177H1836.04L1848.04 125.372L1894.41 123.133L1911.83 49.2633L2042.79 0L2026.15 123.123H2116.25C2113.23 135.826 2102.6 205.748 2099.62 227.167H2011.75L1992.06 372.528C1986.76 409.858 1989.81 423.371 2015.52 423.371C2034.49 423.351 2062.47 412.227 2079.91 403.501ZM1583.14 454.134C1630.8 448.227 1663.61 402.282 1671.49 356.437L1672.82 344.153C1652.34 339.576 1622.74 336.088 1594.03 339.596C1566.7 342.924 1543.95 354.288 1531.72 370.739C1522.49 382.553 1517.86 396.685 1519.91 413.536C1523.02 438.772 1550.94 458.062 1583.14 454.134ZM1542.57 526.735C1475.3 535 1430.99 508.294 1417.69 447.557C1409.34 409.338 1420.93 365.802 1441.19 339.826C1468.32 305.854 1512.54 284.046 1566.5 277.46C1609.93 272.073 1646.52 274.731 1680.74 281.208L1682.16 275.341C1683.14 265.956 1684.13 256.591 1682.76 245.377C1679.21 216.583 1656.5 199.432 1600.43 206.328C1562.6 210.976 1526.61 224.638 1498.67 240.19L1471.48 158.044C1509.36 136.296 1557.1 119.745 1611.74 113.039C1716.12 100.236 1789.46 133.518 1798.85 210.036C1801.34 230.385 1801.64 251.953 1799.07 271.523C1785.67 366.132 1777.08 437.323 1773.32 485.037C1772.71 492.423 1772.76 505.116 1773.42 523.106L1643.9 522.987C1646.66 515.531 1649.12 505.416 1651.32 492.733C1652.78 484.387 1653.82 473.863 1654.47 461.11C1627.1 498.67 1589.47 520.978 1542.57 526.735Z" fill="#E23744"/>
</g>
<defs>
<clipPath id="clip0_1324_2447">
<rect width="2500" height="535" fill="white"/>
</clipPath>
</defs>
</svg>
